<svg xmlns="http://www.w3.org/2000/svg" xmlns:xlink="http://www.w3.org/1999/xlink" version="1.1" x="0px" y="0px" viewBox="0 0 100 125" style="enable-background:new 0 0 100 100;" xml:space="preserve"><g><path d="M88.9,84.18H21.68V52.86h9.46v22.35c0.17,4.33,6.36,4.33,6.53,0V52.86h9.46v22.35c0.17,4.33,6.36,4.33,6.53,0V52.86h9.46   v22.35c0.17,4.33,6.36,4.33,6.53,0V52.86h12.73c1.8,0,3.26-1.46,3.26-3.26v-0.65c0.22-15.85-11.3-25.83-26.3-27.99   c2.93-6.32-1.95-13.86-8.94-13.77c-6.99-0.09-11.87,7.46-8.94,13.77c-15,2.17-26.52,12.14-26.3,27.99v35.24h-3.26   c-4.33,0.17-4.33,6.36,0,6.53H88.9C93.23,90.54,93.22,84.35,88.9,84.18z M78.98,46.33h-9.34v-6.85c0-3.45-0.92-6.7-2.51-9.5   C73.85,32.97,78.34,38.71,78.98,46.33z M63.12,39.48v6.85h-9.46V27.18C59.1,28.63,63.12,33.59,63.12,39.48z M50.39,13.7   c1.8,0,3.26,1.46,3.26,3.26c-0.18,4.33-6.35,4.33-6.53,0C47.13,15.17,48.59,13.7,50.39,13.7z M37.67,39.48   c0-5.89,4.02-10.85,9.46-12.3v19.15h-9.46V39.48z M29.68,32.27c1.2-0.86,2.53-1.62,3.97-2.29c-1.6,2.81-2.51,6.05-2.51,9.5v6.85   H21.8C22.38,40.33,25.03,35.6,29.68,32.27z"/><path d="M82.37,78.47c-1.8,0-3.26-1.46-3.26-3.26V62.16c0.17-4.33,6.36-4.33,6.53,0v13.05C85.63,77.01,84.17,78.47,82.37,78.47   L82.37,78.47z"/></g></svg>